<svg width="44" height="44" viewBox="0 0 44 44" fill="none" xmlns="http://www.w3.org/2000/svg">
<path d="M32.0344 22.9899C31.8663 23.1595 31.6662 23.294 31.4458 23.3859C31.2254 23.4777 30.9889 23.525 30.7502 23.525C30.5114 23.525 30.275 23.4777 30.0545 23.3859C29.8341 23.294 29.6341 23.1595 29.4659 22.9899L23.5149 17.0208V30.7498C23.5149 31.2295 23.3243 31.6896 22.9851 32.0288C22.6459 32.368 22.1858 32.5586 21.706 32.5586C21.2263 32.5586 20.7662 32.368 20.427 32.0288C20.0878 31.6896 19.8972 31.2295 19.8972 30.7498V17.0208L13.9462 22.9899C13.6056 23.3305 13.1436 23.5219 12.6619 23.5219C12.1802 23.5219 11.7183 23.3305 11.3777 22.9899C11.0371 22.6493 10.8457 22.1873 10.8457 21.7057C10.8457 21.224 11.0371 20.762 11.3777 20.4214L20.4218 11.3773C20.5938 11.2126 20.7967 11.0835 21.0187 10.9974C21.2352 10.9017 21.4693 10.8523 21.706 10.8523C21.9428 10.8523 22.1769 10.9017 22.3934 10.9974C22.6154 11.0835 22.8183 11.2126 22.9903 11.3773L32.0344 20.4214C32.204 20.5895 32.3385 20.7896 32.4304 21.01C32.5222 21.2304 32.5695 21.4669 32.5695 21.7057C32.5695 21.9444 32.5222 22.1809 32.4304 22.4013C32.3385 22.6217 32.204 22.8218 32.0344 22.9899Z" fill="#FCFBF8"/>
</svg>
