<svg width="12" height="12" viewBox="0 0 12 12" fill="none" xmlns="http://www.w3.org/2000/svg">
<path d="M8.85509 5.645C8.80861 5.59814 8.75331 5.56094 8.69238 5.53555C8.63145 5.51017 8.5661 5.4971 8.50009 5.4971C8.43409 5.4971 8.36873 5.51017 8.3078 5.53555C8.24687 5.56094 8.19157 5.59814 8.14509 5.645L6.50009 7.295V3.5C6.50009 3.36739 6.44741 3.24021 6.35365 3.14645C6.25988 3.05268 6.1327 3 6.00009 3C5.86748 3 5.74031 3.05268 5.64654 3.14645C5.55277 3.24021 5.50009 3.36739 5.50009 3.5V7.295L3.85509 5.645C3.76094 5.55085 3.63324 5.49795 3.50009 5.49795C3.36694 5.49795 3.23924 5.55085 3.14509 5.645C3.05094 5.73915 2.99805 5.86685 2.99805 6C2.99805 6.13315 3.05094 6.26085 3.14509 6.355L5.64509 8.855C5.69264 8.90052 5.74872 8.9362 5.81009 8.96C5.86994 8.98645 5.93466 9.00012 6.00009 9.00012C6.06553 9.00012 6.13024 8.98645 6.19009 8.96C6.25147 8.9362 6.30754 8.90052 6.35509 8.855L8.85509 6.355C8.90196 6.30852 8.93915 6.25322 8.96454 6.19229C8.98992 6.13136 9.00299 6.06601 9.00299 6C9.00299 5.93399 8.98992 5.86864 8.96454 5.80771C8.93915 5.74678 8.90196 5.69148 8.85509 5.645Z" fill="#23433A"/>
</svg>
