<svg width="39" height="39" viewBox="0 0 39 39" fill="none" xmlns="http://www.w3.org/2000/svg">
<path d="M28.6625 18.2719C28.512 18.1202 28.333 17.9998 28.1358 17.9177C27.9386 17.8355 27.727 17.7932 27.5134 17.7932C27.2997 17.7932 27.0882 17.8355 26.891 17.9177C26.6938 17.9998 26.5148 18.1202 26.3643 18.2719L21.0397 23.6127V11.3289C21.0397 10.8996 20.8692 10.488 20.5657 10.1845C20.2622 9.88096 19.8505 9.71045 19.4213 9.71045C18.992 9.71045 18.5804 9.88096 18.2769 10.1845C17.9734 10.488 17.8028 10.8996 17.8028 11.3289V23.6127L12.4782 18.2719C12.1735 17.9672 11.7601 17.796 11.3291 17.796C10.8982 17.796 10.4848 17.9672 10.1801 18.2719C9.87531 18.5767 9.7041 18.99 9.7041 19.421C9.7041 19.852 9.87531 20.2653 10.1801 20.5701L18.2722 28.6622C18.4261 28.8095 18.6076 28.925 18.8063 29.0021C19 29.0877 19.2095 29.1319 19.4213 29.1319C19.6331 29.1319 19.8425 29.0877 20.0363 29.0021C20.2349 28.925 20.4164 28.8095 20.5704 28.6622L28.6625 20.5701C28.8142 20.4196 28.9346 20.2406 29.0167 20.0434C29.0989 19.8462 29.1412 19.6346 29.1412 19.421C29.1412 19.2073 29.0989 18.9958 29.0167 18.7986C28.9346 18.6014 28.8142 18.4224 28.6625 18.2719Z" fill="#23433A"/>
</svg>
