<svg width="24" height="24" viewBox="0 0 24 24" fill="none" xmlns="http://www.w3.org/2000/svg">
<path d="M12.71 6.29006C12.8037 6.38302 12.8781 6.49362 12.9289 6.61548C12.9797 6.73734 13.0058 6.86805 13.0058 7.00006C13.0058 7.13207 12.9797 7.26278 12.9289 7.38463C12.8781 7.50649 12.8037 7.61709 12.71 7.71006L9.41 11.0001H17C17.2652 11.0001 17.5196 11.1054 17.7071 11.293C17.8946 11.4805 18 11.7348 18 12.0001C18 12.2653 17.8946 12.5196 17.7071 12.7072C17.5196 12.8947 17.2652 13.0001 17 13.0001H9.41L12.71 16.2901C12.8983 16.4784 13.0041 16.7338 13.0041 17.0001C13.0041 17.2664 12.8983 17.5218 12.71 17.7101C12.5217 17.8984 12.2663 18.0042 12 18.0042C11.7337 18.0042 11.4783 17.8984 11.29 17.7101L6.29 12.7101C6.19896 12.615 6.12759 12.5028 6.08 12.3801C6.02709 12.2604 5.99977 12.1309 5.99977 12.0001C5.99977 11.8692 6.02709 11.7398 6.08 11.6201C6.12759 11.4973 6.19896 11.3852 6.29 11.2901L11.29 6.29006C11.383 6.19633 11.4936 6.12193 11.6154 6.07117C11.7373 6.0204 11.868 5.99426 12 5.99426C12.132 5.99426 12.2627 6.0204 12.3846 6.07117C12.5064 6.12193 12.617 6.19633 12.71 6.29006Z" fill="#23433A"/>
</svg>
