<svg width="150" height="44" viewBox="0 0 150 44" fill="none" xmlns="http://www.w3.org/2000/svg">
<path d="M3.29819 44C2.99616 44 2.50082 43.8852 1.81219 43.6557C1.13564 43.4261 0.634267 42.6227 0.308072 41.2455C0.102691 40.4119 0 39.5058 0 38.5272C0 36.268 0.428885 33.8034 1.28666 31.1334C1.83031 29.4662 2.10214 28.3608 2.10214 27.8171C2.10214 27.7688 2.0961 27.6661 2.08402 27.5091C2.08402 27.3399 2.01153 27.1406 1.86656 26.911C1.55244 26.3553 1.39539 25.6546 1.39539 24.8089C1.39539 24.1807 1.54036 23.2081 1.83031 21.8913C2.12026 20.5744 2.81494 18.7924 3.91433 16.5453C5.02581 14.2982 6.36683 12.0813 7.9374 9.89456C9.50796 7.70785 11.1933 5.78089 12.9934 4.11367C14.8056 2.43438 16.6057 1.23833 18.3937 0.525535C19.2878 0.175178 20.1516 0 20.9852 0C21.8188 0 22.6282 0.181219 23.4135 0.543657C24.8753 1.58265 25.6848 3.20758 25.8418 5.41845C25.866 5.78089 25.8781 6.16145 25.8781 6.56013C25.8781 8.49314 25.5156 10.7886 24.7908 13.4465C24.0659 16.1043 22.9907 18.9857 21.5651 22.0906C20.1395 25.1834 18.5689 28.1433 16.8534 30.9703C15.1378 33.7853 13.4344 36.2197 11.743 38.2735C10.0637 40.3394 8.56562 41.7831 7.24876 42.6046C5.64195 43.5349 4.3251 44 3.29819 44ZM3.6425 42.369C4.24657 42.369 5.00769 42.0972 5.92586 41.5535C7.60516 40.4179 9.62273 38.1949 11.9786 34.8847C14.3344 31.5744 16.5634 27.8232 18.6656 23.631C20.7798 19.4388 22.3081 15.4338 23.2504 11.6161C23.4437 10.8188 23.6128 9.81604 23.7578 8.60791C23.8666 7.7743 23.9209 6.95277 23.9209 6.14333C23.9209 5.76881 23.8968 5.19495 23.8484 4.42175C23.8001 3.63646 23.5283 2.89347 23.0329 2.19275C22.6584 1.64909 22.1087 1.37727 21.3839 1.37727C21.1664 1.37727 20.9368 1.40143 20.6952 1.44975C19.0884 1.88468 17.1856 3.08677 14.9868 5.05601C12.8001 7.01318 10.71 9.35695 8.71664 12.0873C6.72323 14.8056 5.23119 17.5058 4.24053 20.1878C3.87809 21.2389 3.69687 21.9456 3.69687 22.3081C3.69687 22.5014 3.74519 22.598 3.84184 22.598C3.86601 22.598 3.98078 22.5678 4.18616 22.5074C4.39154 22.4349 5.01977 21.4382 6.07084 19.5173C7.14607 17.5239 8.31192 15.6815 9.56837 13.9901C10.8369 12.2867 12.039 10.9094 13.1746 9.85832C14.3223 8.79517 15.2345 8.26359 15.911 8.26359C16.4305 8.26359 16.6903 8.40857 16.6903 8.69852C16.6903 8.78309 16.6359 8.97035 16.5272 9.2603C16.4184 9.53817 15.8688 10.0879 14.8781 10.9094C13.2834 12.2867 11.6463 14.2197 9.96705 16.7084C8.28775 19.1971 6.89237 21.7644 5.78089 24.4102C5.30972 25.5338 5.07413 26.2526 5.07413 26.5667C5.07413 26.7721 5.14058 26.9292 5.27348 27.0379C5.63591 27.3399 6.12521 27.4909 6.74135 27.4909C6.98298 27.4909 7.4179 27.4426 8.04613 27.346C8.68644 27.2493 9.6771 26.6996 11.0181 25.6969C12.492 24.5733 13.4163 24.0115 13.7908 24.0115C14.0082 24.0115 14.117 24.1565 14.117 24.4465C14.117 24.5431 14.1049 24.6579 14.0807 24.7908C14.0324 25.0324 13.7364 25.3888 13.1928 25.86C12.6491 26.3311 11.9484 26.8386 11.0906 27.3822C9.60461 28.3608 8.37232 29.0071 7.39374 29.3213C6.97089 29.4541 6.51785 29.5206 6.0346 29.5206C5.39429 29.5206 4.69962 29.4058 3.95058 29.1763C3.43108 30.4569 2.95991 31.9731 2.53707 33.7249C2.05382 35.6941 1.81219 37.458 1.81219 39.0165C1.81219 40.3817 2.09006 41.3663 2.6458 41.9703C2.89951 42.2361 3.23174 42.369 3.6425 42.369Z" fill="#FCFBF8"/>
<path d="M25.7955 31.2241C25.3122 31.2241 24.9196 31.0126 24.6175 30.5898C24.5088 30.4327 24.4544 30.1971 24.4544 29.883C24.4544 28.8199 25.0645 27.0198 26.2847 24.4827C26.9613 23.0934 27.4929 22.1631 27.8795 21.6919C28.2661 21.2087 28.701 20.9671 29.1842 20.9671C29.7641 20.9671 30.0541 21.2751 30.0541 21.8913C30.0541 22.447 29.8125 23.2806 29.3292 24.3921C28.846 25.4915 28.6043 26.1076 28.6043 26.2405H28.6225C28.6708 26.2405 28.8883 26.1258 29.2749 25.8962C29.6615 25.6667 30.1266 25.3646 30.6702 24.9901C32.4099 23.7578 33.8235 23.1417 34.9108 23.1417C36.3001 23.1417 37.1821 24.1444 37.5566 26.1499C37.7136 27.0802 37.8767 27.7507 38.0459 28.1615C38.2271 28.5722 38.517 28.7776 38.9157 28.7776C39.3265 28.7776 39.9305 28.5843 40.7279 28.1977C41.9723 27.6299 43.561 26.6936 45.494 25.3888C47.4391 24.0719 48.9855 22.894 50.1332 21.855C50.8701 21.2751 51.5165 20.9852 52.0722 20.9852C52.5192 20.9852 52.7548 21.1664 52.779 21.5288C52.779 21.8429 52.5313 22.2295 52.036 22.6886C49.5593 25.2136 47.0947 27.201 44.6422 28.6507C42.1897 30.0884 40.0816 30.8072 38.3177 30.8072C37.7257 30.8072 37.1881 30.7166 36.7048 30.5354C36.0041 30.2213 35.533 29.6656 35.2913 28.8682C35.0497 28.0588 34.8987 27.2856 34.8383 26.5486C34.79 26.162 34.7356 25.8479 34.6752 25.6063C34.6269 25.3526 34.5483 25.2257 34.4396 25.2257C33.8597 25.2257 32.265 26.458 29.6554 28.9226C28.0124 30.4569 26.7257 31.2241 25.7955 31.2241Z" fill="#FCFBF8"/>
<path d="M51.1741 43.6557C50.4975 43.6557 49.8874 43.3959 49.3438 42.8764C48.9209 42.4657 48.7095 41.9462 48.7095 41.318C48.7095 40.4964 49.2048 38.9319 50.1955 36.6244C50.9325 34.8726 51.76 33.145 52.6782 31.4415L54.3636 28.3608L52.9319 28.5964C52.6541 28.6447 52.3883 28.6689 52.1346 28.6689C51.1801 28.6689 50.4975 28.3306 50.0868 27.654C49.7968 27.1829 49.6519 26.6392 49.6519 26.0231C49.6519 25.5519 49.7908 24.8633 50.0687 23.9572C50.3465 23.039 51.1439 22.0362 52.4608 20.9489C53.1131 20.4657 53.8199 20.1093 54.581 19.8797C55.2696 19.6744 55.9341 19.5717 56.5744 19.5717C56.6348 19.5717 56.8523 19.5837 57.2268 19.6079C57.6134 19.62 58.0302 19.765 58.4772 20.0428C58.9242 20.3207 59.1477 20.7194 59.1477 21.2389C59.1477 21.6134 59.0692 21.8429 58.9122 21.9275C58.8517 21.9517 58.7611 21.9638 58.6403 21.9638C58.4591 21.9638 58.2114 21.9336 57.8973 21.8731C57.8007 21.8611 57.698 21.855 57.5893 21.855C57.106 21.855 56.5623 22.0362 55.9583 22.3987C55.3663 22.749 54.7985 23.2142 54.2548 23.7941C53.7232 24.3619 53.3608 24.8753 53.1675 25.3344C53.095 25.5036 53.0588 25.6425 53.0588 25.7512C53.0588 25.9445 53.1856 26.0412 53.4393 26.0412C53.8018 26.0412 54.5085 25.709 55.5596 25.0445C56.7919 24.2471 57.7705 23.8484 58.4953 23.8484C59.1719 23.8484 59.5102 24.1928 59.5102 24.8814C59.5102 25.0747 59.3169 25.564 58.9303 26.3493C58.5437 27.1225 58.0665 27.9742 57.4986 28.9044C56.2905 30.8979 55.2153 32.8188 54.2729 34.6672C53.3427 36.5157 52.6601 38.05 52.2252 39.2702C51.9715 39.9709 51.8446 40.4723 51.8446 40.7743C51.8446 40.9918 51.9111 41.1005 52.0439 41.1005C52.3822 41.1005 53.4997 40.2065 55.3965 38.4185C57.3053 36.6425 59.4679 34.4739 61.8841 31.9127C67.4899 25.872 70.927 22.296 72.1955 21.1845C72.6546 20.81 73.1016 20.6167 73.5365 20.6046C73.9594 20.6046 74.2493 20.7435 74.4064 21.0214C74.4547 21.106 74.4789 21.2026 74.4789 21.3114C74.4789 21.5409 74.352 21.8188 74.0983 22.145C73.2405 23.2444 71.5129 25.2257 68.9155 28.089C66.318 30.9401 63.793 33.6645 61.3405 36.2619C59.1175 38.5574 57.106 40.3635 55.3059 41.6804C53.5058 42.9973 52.1285 43.6557 51.1741 43.6557Z" fill="#FCFBF8"/>
<path d="M70.2463 31.1334C69.7993 31.1334 69.3765 31.0489 68.9778 30.8797C68.567 30.7106 68.1985 30.4206 67.8723 30.0099C67.5462 29.5991 67.3831 29.134 67.3831 28.6145C67.3831 27.2614 68.416 25.5217 70.4819 23.3954C71.1464 22.6826 71.7927 22.0302 72.4209 21.4382C73.5324 20.3872 74.2452 19.8616 74.5593 19.8616C74.7043 19.8616 74.8493 19.9401 74.9943 20.0972C75.1392 20.2422 75.3325 20.4778 75.5742 20.804C75.6587 20.9127 75.701 21.0214 75.701 21.1301C75.701 21.3355 75.6044 21.547 75.4111 21.7644C75.3023 21.9215 75.2238 22.0725 75.1755 22.2175C75.8279 23.3652 76.7762 23.939 78.0206 23.939C78.7576 23.939 79.5308 23.7759 80.3402 23.4498C81.5846 22.9423 83.0585 22.1148 84.762 20.9671C85.7647 20.3026 86.3627 19.9703 86.556 19.9703C86.7252 19.9703 86.8641 20.0428 86.9728 20.1878C87.0816 20.3328 87.1359 20.4959 87.1359 20.6771C87.1359 20.8583 87.0816 21.0395 86.9728 21.2208C86.0909 22.4893 84.8888 23.6249 83.3666 24.6277C81.8443 25.6183 80.1228 26.2405 78.2018 26.4942C77.936 26.5184 77.7125 26.5305 77.5313 26.5305C77.3622 26.5305 77.2233 26.5486 77.1145 26.5848C77.0179 26.609 76.9212 26.6815 76.8246 26.8023C76.74 26.9231 76.6192 27.1225 76.4621 27.4003C75.9789 28.1977 75.2359 28.9709 74.2331 29.7199C73.3029 30.4086 72.2881 30.8495 71.1887 31.0428C70.8745 31.1032 70.5604 31.1334 70.2463 31.1334ZM70.4094 29.1219C70.6752 29.1219 71.1887 28.8561 71.9498 28.3245C72.4572 27.9621 72.8378 27.5513 73.0915 27.0923C73.3452 26.6332 73.472 26.2224 73.472 25.86C73.472 25.4734 73.321 25.1955 73.019 25.0264L72.8196 25.2257C72.5659 25.4673 72.1189 25.9747 71.4786 26.7479C70.6329 27.8473 70.2101 28.5662 70.2101 28.9044C70.2101 29.0494 70.2765 29.1219 70.4094 29.1219Z" fill="#FCFBF8"/>
<path d="M89.3729 19.6623C88.9259 19.6623 88.6178 19.4448 88.4487 19.0099C88.4366 18.9495 88.4306 18.877 88.4306 18.7924C88.4306 18.5025 88.5514 18.1098 88.793 17.6145C89.0467 17.1071 89.3789 16.6118 89.7897 16.1285C90.2126 15.6453 90.569 15.4036 90.8589 15.4036C91.3663 15.4036 91.7952 15.5063 92.1456 15.7117C92.508 15.905 92.6892 16.1406 92.6892 16.4185C92.6892 16.5393 92.5805 16.7869 92.363 17.1615C92.1576 17.5239 91.91 17.8984 91.62 18.285C90.8468 19.2032 90.0978 19.6623 89.3729 19.6623ZM87.5064 30.626H86.5821C86.0143 30.626 85.38 30.2515 84.6793 29.5025C84.1598 28.8622 83.9001 28.0708 83.9001 27.1285C83.9001 26.899 83.9484 26.4036 84.0451 25.6425C84.1417 24.8693 84.631 23.8303 85.5129 22.5255C86.2378 21.4261 86.8721 20.8764 87.4157 20.8764C87.7782 20.8764 88.1587 21.0577 88.5574 21.4201C88.8715 21.6738 89.0286 21.8792 89.0286 22.0362C89.0286 22.1571 88.9742 22.3202 88.8655 22.5255C88.7688 22.7309 88.5635 23.0752 88.2493 23.5585C87.8386 24.1867 87.5064 24.8874 87.2526 25.6606C86.9506 26.5667 86.7996 27.3218 86.7996 27.9259C86.7996 28.385 86.9204 28.6145 87.162 28.6145C87.9715 28.6145 89.1615 28.2581 90.7321 27.5453C92.3147 26.8204 93.9698 25.9445 95.6975 24.9176C97.4372 23.8907 98.9534 22.9242 100.246 22.0181C101.261 21.3053 101.98 20.9489 102.403 20.9489C102.825 20.9489 103.121 21.1362 103.291 21.5107C103.315 21.559 103.327 21.6134 103.327 21.6738C103.327 22.0362 102.91 22.6041 102.076 23.3773C101.243 24.1505 100.053 25.0445 98.5063 26.0593C96.972 27.0741 95.3109 28.0406 93.5228 28.9588C92.7979 29.3333 91.8798 29.7079 90.7683 30.0824C89.6689 30.4448 88.5816 30.626 87.5064 30.626Z" fill="#FCFBF8"/>
<path d="M100.852 31.2241C100.369 31.2241 99.9762 31.0126 99.6741 30.5898C99.5654 30.4327 99.511 30.1971 99.511 29.883C99.511 28.8199 100.121 27.0198 101.341 24.4827C102.018 23.0934 102.549 22.1631 102.936 21.6919C103.323 21.2087 103.758 20.9671 104.241 20.9671C104.821 20.9671 105.111 21.2751 105.111 21.8913C105.111 22.447 104.869 23.2806 104.386 24.3921C103.903 25.4915 103.661 26.1076 103.661 26.2405H103.679C103.727 26.2405 103.945 26.1258 104.331 25.8962C104.718 25.6667 105.183 25.3646 105.727 24.9901C107.467 23.7578 108.88 23.1417 109.967 23.1417C111.357 23.1417 112.239 24.1444 112.613 26.1499C112.77 27.0802 112.933 27.7507 113.102 28.1615C113.284 28.5722 113.574 28.7776 113.972 28.7776C114.383 28.7776 114.987 28.5843 115.785 28.1977C117.029 27.6299 118.618 26.6936 120.551 25.3888C122.496 24.0719 124.042 22.894 125.19 21.855C125.927 21.2751 126.573 20.9852 127.129 20.9852C127.576 20.9852 127.811 21.1664 127.836 21.5288C127.836 21.8429 127.588 22.2295 127.093 22.6886C124.616 25.2136 122.151 27.201 119.699 28.6507C117.246 30.0884 115.138 30.8072 113.374 30.8072C112.782 30.8072 112.245 30.7166 111.761 30.5354C111.061 30.2213 110.59 29.6656 110.348 28.8682C110.106 28.0588 109.955 27.2856 109.895 26.5486C109.847 26.162 109.792 25.8479 109.732 25.6063C109.683 25.3526 109.605 25.2257 109.496 25.2257C108.916 25.2257 107.322 26.458 104.712 28.9226C103.069 30.4569 101.782 31.2241 100.852 31.2241Z" fill="#FCFBF8"/>
<path d="M126.231 43.6557C125.554 43.6557 124.944 43.3959 124.4 42.8764C123.978 42.4657 123.766 41.9462 123.766 41.318C123.766 40.4964 124.261 38.9319 125.252 36.6244C125.989 34.8726 126.817 33.145 127.735 31.4415L129.42 28.3608L127.989 28.5964C127.711 28.6447 127.445 28.6689 127.191 28.6689C126.237 28.6689 125.554 28.3306 125.143 27.654C124.853 27.1829 124.708 26.6392 124.708 26.0231C124.708 25.5519 124.847 24.8633 125.125 23.9572C125.403 23.039 126.2 22.0362 127.517 20.9489C128.17 20.4657 128.876 20.1093 129.638 19.8797C130.326 19.6744 130.991 19.5717 131.631 19.5717C131.691 19.5717 131.909 19.5837 132.283 19.6079C132.67 19.62 133.087 19.765 133.534 20.0428C133.981 20.3207 134.204 20.7194 134.204 21.2389C134.204 21.6134 134.126 21.8429 133.969 21.9275C133.908 21.9517 133.818 21.9638 133.697 21.9638C133.516 21.9638 133.268 21.9336 132.954 21.8731C132.857 21.8611 132.755 21.855 132.646 21.855C132.163 21.855 131.619 22.0362 131.015 22.3987C130.423 22.749 129.855 23.2142 129.311 23.7941C128.78 24.3619 128.417 24.8753 128.224 25.3344C128.152 25.5036 128.115 25.6425 128.115 25.7512C128.115 25.9445 128.242 26.0412 128.496 26.0412C128.858 26.0412 129.565 25.709 130.616 25.0445C131.848 24.2471 132.827 23.8484 133.552 23.8484C134.229 23.8484 134.567 24.1928 134.567 24.8814C134.567 25.0747 134.373 25.564 133.987 26.3493C133.6 27.1225 133.123 27.9742 132.555 28.9044C131.347 30.8979 130.272 32.8188 129.33 34.6672C128.399 36.5157 127.717 38.05 127.282 39.2702C127.028 39.9709 126.901 40.4723 126.901 40.7743C126.901 40.9918 126.968 41.1005 127.101 41.1005C127.439 41.1005 128.556 40.2065 130.453 38.4185C132.362 36.6425 134.525 34.4739 136.941 31.9127C142.546 25.872 145.984 22.296 147.252 21.1845C147.711 20.81 148.158 20.6167 148.593 20.6046C149.016 20.6046 149.306 20.7435 149.463 21.0214C149.511 21.106 149.535 21.2026 149.535 21.3114C149.535 21.5409 149.409 21.8188 149.155 22.145C148.297 23.2444 146.57 25.2257 143.972 28.089C141.375 30.9401 138.85 33.6645 136.397 36.2619C134.174 38.5574 132.163 40.3635 130.362 41.6804C128.562 42.9973 127.185 43.6557 126.231 43.6557Z" fill="#FCFBF8"/>
</svg>
